<svg xmlns="http://www.w3.org/2000/svg" class="ionicon s-ion-icon" viewBox="0 0 512 512">
<path class="ionicon-fill-none ionicon-stroke-width" style=" stroke:none;fill-rule:nonzero;fill:rgb(0%,0%,0%);fill-opacity:1;" d="M 36.984375 9.054688 C 29.183594 13.5625 19.398438 19.210938 15.246094 21.609375 C 11.09375 24.007812 7.683594 25.980469 7.664062 25.996094 C 7.632812 26.019531 7.628906 28.230469 7.617188 51.101562 C 7.609375 64.898438 7.609375 76.214844 7.617188 76.257812 C 7.632812 76.339844 5.433594 75.058594 24.226562 85.917969 C 28.871094 88.597656 36.828125 93.195312 41.910156 96.132812 C 46.996094 99.070312 51.160156 101.472656 51.164062 101.476562 C 51.175781 101.480469 55.761719 98.832031 84.871094 82.015625 L 94.71875 76.328125 L 94.714844 51.167969 L 94.707031 26.007812 L 92.667969 24.828125 C 91.542969 24.179688 88.34375 22.328125 85.546875 20.714844 C 82.753906 19.101562 79.230469 17.066406 77.714844 16.191406 C 76.199219 15.316406 73.691406 13.871094 72.144531 12.972656 C 66.996094 10 58.972656 5.367188 55.109375 3.136719 C 53.011719 1.921875 51.265625 0.914062 51.234375 0.894531 L 51.171875 0.859375 Z M 60.714844 34.546875 L 70.074219 39.933594 L 70.074219 45.960938 L 59.660156 45.960938 L 55.4375 43.550781 C 53.113281 42.226562 51.191406 41.128906 51.164062 41.117188 C 51.113281 41.089844 50.917969 41.199219 46.847656 43.523438 L 42.585938 45.949219 L 42.585938 55.703125 L 46.847656 58.132812 C 50.921875 60.457031 51.113281 60.5625 51.164062 60.535156 C 51.191406 60.523438 53.113281 59.425781 55.4375 58.101562 L 59.660156 55.691406 L 70.074219 55.691406 L 70.074219 58.734375 L 70.070312 61.78125 L 60.628906 67.21875 C 55.429688 70.207031 51.171875 72.652344 51.164062 72.648438 C 51.152344 72.648438 46.894531 70.199219 41.699219 67.207031 L 32.253906 61.765625 L 32.261719 39.9375 L 41.71875 34.496094 L 51.171875 29.054688 L 51.265625 29.105469 C 51.316406 29.136719 55.570312 31.585938 60.714844 34.546875 Z M 60.714844 34.546875 "/>
</svg>
