<svg xmlns="http://www.w3.org/2000/svg" class="ionicon s-ion-icon" viewBox="0 0 512 512">
<g transform="translate(0.000000,500.000000) scale(0.100000,-0.100000)"
fill="#000000" stroke="none">
<path class="ionicon-fill-none ionicon-stroke-width" style=" stroke:none;fill-rule:nonzero;fill:rgb(0%,0%,0%);fill-opacity:1;" d="M2350 4960 c0 -5 -20 -10 -45 -10 -38 0 -45 -3 -45 -20 0 -16 7 -20
30 -20 20 0 30 -5 30 -15 0 -11 11 -15 40 -15 29 0 40 4 40 15 0 8 7 15 15 15
8 0 15 -7 15 -15 0 -8 7 -15 15 -15 8 0 15 -4 15 -10 0 -5 18 -10 40 -10 22 0
40 5 40 10 0 6 -4 10 -10 10 -5 0 -10 7 -10 15 0 8 5 15 10 15 6 0 10 9 10 20
0 15 -7 20 -25 20 -18 0 -25 -5 -25 -20 0 -16 -7 -20 -30 -20 -27 0 -30 3 -30
30 0 28 -2 30 -40 30 -22 0 -40 -4 -40 -10z"/>
<path d="M2570 4930 c0 -11 -7 -20 -15 -20 -8 0 -15 -7 -15 -15 0 -8 7 -15 15
-15 8 0 15 7 15 15 0 8 7 15 15 15 8 0 15 9 15 20 0 11 -7 20 -15 20 -8 0 -15
-9 -15 -20z"/>
<path d="M2630 4930 c0 -11 -7 -20 -15 -20 -9 0 -15 -9 -15 -25 0 -21 -5 -25
-30 -25 -20 0 -30 -5 -30 -15 0 -12 13 -15 60 -15 36 0 60 4 60 11 0 6 6 17
14 25 8 8 19 14 25 14 6 0 11 16 11 35 0 34 -1 35 -40 35 -33 0 -40 -3 -40
-20z"/>
<path d="M4340 4919 c0 -30 -19 -59 -39 -59 -6 0 -11 -13 -11 -30 0 -20 -5
-30 -15 -30 -10 0 -15 -10 -15 -30 0 -20 -5 -30 -15 -30 -9 0 -15 -9 -15 -25
0 -16 -6 -25 -15 -25 -10 0 -15 -10 -15 -30 0 -20 -5 -30 -15 -30 -8 0 -15 -7
-15 -15 0 -8 -4 -15 -10 -15 -5 0 -10 -11 -10 -25 0 -16 -6 -25 -15 -25 -10 0
-15 -11 -15 -35 0 -24 -5 -35 -15 -35 -9 0 -15 -9 -15 -25 0 -16 -6 -25 -15
-25 -10 0 -15 -10 -15 -30 0 -20 -5 -30 -15 -30 -8 0 -15 -7 -15 -15 0 -8 -4
-15 -10 -15 -5 0 -10 -7 -10 -15 0 -12 -15 -15 -75 -15 -60 0 -75 3 -75 15 0
12 -14 15 -70 15 -56 0 -70 3 -70 15 0 10 -10 15 -30 15 -20 0 -30 5 -30 15 0
10 -10 15 -30 15 -20 0 -30 5 -30 15 0 8 -4 15 -10 15 -5 0 -10 7 -10 15 0 10
-11 15 -35 15 -19 0 -35 5 -35 10 0 6 16 10 35 10 19 0 35 -4 35 -10 0 -15 70
-12 86 4 8 8 14 28 14 45 0 29 3 31 35 31 31 0 35 3 35 25 0 23 -4 25 -45 25
-33 0 -45 4 -45 15 0 8 -7 15 -15 15 -8 0 -15 7 -15 15 0 9 -9 15 -25 15 -16
0 -25 6 -25 15 0 8 -9 15 -20 15 -11 0 -20 5 -20 10 0 6 -11 10 -25 10 -16 0
-25 6 -25 15 0 8 -7 15 -15 15 -8 0 -15 7 -15 15 0 10 -10 15 -30 15 -20 0
-30 5 -30 15 0 10 -10 15 -30 15 -20 0 -30 -5 -30 -15 0 -9 -9 -15 -25 -15
-21 0 -25 -5 -25 -30 0 -16 5 -30 11 -30 19 0 39 -28 39 -54 0 -14 -4 -26 -10
-26 -5 0 -10 -7 -10 -15 0 -8 5 -15 10 -15 6 0 10 -7 10 -15 0 -11 12 -15 45
-15 41 0 45 -2 45 -25 0 -21 -5 -25 -30 -25 -20 0 -30 5 -30 15 0 8 -7 15 -15
15 -8 0 -15 5 -15 10 0 6 -18 10 -40 10 -29 0 -40 4 -40 15 0 8 7 15 15 15 8
0 15 7 15 15 0 8 -7 15 -15 15 -8 0 -15 -7 -15 -15 0 -12 -13 -15 -55 -15 -42
0 -55 3 -55 15 0 12 -17 15 -90 15 -73 0 -90 3 -90 15 0 13 -24 15 -155 15
-131 0 -155 2 -155 15 0 10 -10 15 -30 15 -20 0 -30 -5 -30 -15 0 -8 -7 -15
-15 -15 -8 0 -15 7 -15 15 0 11 -11 15 -40 15 -29 0 -40 -4 -40 -15 0 -13 -23
-15 -145 -15 -122 0 -145 -2 -145 -15 0 -12 -16 -15 -85 -15 -69 0 -85 -3 -85
-15 0 -11 -12 -15 -45 -15 -33 0 -45 -4 -45 -15 0 -9 -9 -15 -25 -15 -14 0
-25 -4 -25 -10 0 -5 -13 -10 -30 -10 -20 0 -30 -5 -30 -15 0 -9 -9 -15 -25
-15 -18 0 -25 -5 -25 -20 0 -16 -7 -20 -35 -20 -19 0 -35 -4 -35 -10 0 -5 -11
-10 -25 -10 -16 0 -25 -6 -25 -15 0 -10 -10 -15 -30 -15 -20 0 -30 -5 -30 -15
0 -8 -7 -15 -15 -15 -8 0 -15 -7 -15 -15 0 -9 -9 -15 -25 -15 -16 0 -25 -6
-25 -15 0 -8 -7 -15 -15 -15 -8 0 -15 -7 -15 -15 0 -10 -10 -15 -30 -15 -16 0
-30 -4 -30 -10 0 -5 -7 -10 -15 -10 -8 0 -15 -7 -15 -15 0 -8 -7 -15 -15 -15
-8 0 -15 -9 -15 -20 0 -16 -7 -20 -30 -20 -16 0 -30 -4 -30 -10 0 -5 -7 -10
-15 -10 -8 0 -15 -7 -15 -15 0 -8 -4 -15 -10 -15 -5 0 -10 -7 -10 -15 0 -8 -7
-15 -15 -15 -8 0 -15 -4 -15 -10 0 -5 -7 -10 -15 -10 -8 0 -15 -9 -15 -20 0
-11 -7 -20 -15 -20 -8 0 -15 -4 -15 -10 0 -5 -7 -10 -15 -10 -8 0 -15 -7 -15
-15 0 -8 -7 -15 -15 -15 -8 0 -15 -5 -15 -11 0 -14 -25 -39 -39 -39 -6 0 -11
-9 -11 -20 0 -11 -7 -20 -15 -20 -8 0 -15 -7 -15 -15 0 -8 -7 -15 -15 -15 -9
0 -15 -9 -15 -25 0 -16 -6 -25 -15 -25 -8 0 -15 -7 -15 -15 0 -8 -4 -15 -10
-15 -5 0 -10 -7 -10 -15 0 -8 -7 -15 -15 -15 -10 0 -15 -10 -15 -30 0 -23 -4
-30 -20 -30 -15 0 -20 -7 -20 -25 0 -14 -4 -25 -10 -25 -5 0 -10 -13 -10 -30
0 -20 -5 -30 -15 -30 -10 0 -15 -10 -15 -30 0 -20 -5 -30 -15 -30 -10 0 -15
-10 -15 -30 0 -16 -4 -30 -10 -30 -5 0 -10 -11 -10 -25 0 -18 -5 -25 -20 -25
-17 0 -20 -7 -20 -45 0 -33 -4 -45 -15 -45 -12 0 -15 -13 -15 -60 0 -33 -4
-60 -10 -60 -5 0 -10 -22 -10 -50 0 -38 -4 -50 -15 -50 -12 0 -15 -15 -15 -75
l0 -75 -45 0 c-33 0 -45 4 -45 15 0 8 -7 15 -15 15 -9 0 -15 9 -15 25 0 16 6
25 15 25 8 0 15 7 15 15 0 8 -7 15 -15 15 -8 0 -15 9 -15 20 0 19 -7 20 -115
20 l-115 0 0 25 c0 16 6 25 15 25 8 0 15 7 15 15 0 10 10 15 30 15 17 0 30 5
30 10 0 6 -35 10 -85 10 -78 0 -85 2 -85 20 0 18 7 20 55 20 42 0 55 3 55 15
0 8 7 15 15 15 8 0 15 5 15 10 0 6 -7 10 -15 10 -8 0 -15 7 -15 15 0 8 -7 15
-15 15 -9 0 -15 -9 -15 -25 0 -20 -5 -25 -25 -25 -20 0 -25 5 -25 25 0 16 6
25 15 25 8 0 15 7 15 15 0 9 9 15 25 15 16 0 25 6 25 15 0 8 7 15 15 15 8 0
15 7 15 15 0 8 7 15 15 15 10 0 15 -10 15 -30 l0 -30 60 0 c47 0 60 -3 60 -15
0 -10 -11 -15 -35 -15 -31 0 -35 -3 -35 -25 0 -16 6 -25 15 -25 8 0 15 5 15
10 0 6 9 10 20 10 11 0 20 7 20 15 0 8 5 15 10 15 6 0 10 14 10 30 0 30 -1 30
-55 30 -52 0 -55 1 -55 25 0 24 -3 25 -60 25 l-60 0 0 31 c0 41 -21 59 -69 59
-30 0 -41 4 -41 15 0 8 7 15 15 15 8 0 15 7 15 15 0 8 7 15 15 15 8 0 15 5 15
10 0 6 -7 10 -15 10 -8 0 -15 9 -15 20 0 16 7 20 30 20 21 0 30 -5 30 -16 0
-18 23 -44 39 -44 6 0 11 20 11 45 l0 45 -55 0 c-42 0 -55 -3 -55 -15 0 -8 -7
-15 -15 -15 -11 0 -15 -12 -15 -45 0 -33 -4 -45 -15 -45 -9 0 -15 -9 -15 -25
0 -16 -6 -25 -15 -25 -12 0 -15 -15 -15 -75 0 -60 3 -75 15 -75 8 0 15 -7 15
-15 0 -8 -7 -15 -15 -15 -8 0 -15 -7 -15 -15 0 -8 -4 -15 -10 -15 -5 0 -10
-20 -10 -45 0 -33 -4 -45 -15 -45 -12 0 -15 -16 -15 -85 0 -78 -2 -85 -20 -85
-20 0 -20 -7 -20 -330 0 -323 0 -330 20 -330 18 0 20 -7 20 -85 0 -69 3 -85
15 -85 11 0 15 -11 15 -40 0 -22 5 -40 10 -40 6 0 10 -18 10 -40 0 -29 4 -40
15 -40 11 0 15 -12 15 -45 0 -33 4 -45 15 -45 8 0 15 -7 15 -15 0 -8 7 -15 15
-15 9 0 15 -9 15 -25 0 -16 6 -25 15 -25 10 0 15 -11 15 -35 0 -19 5 -35 11
-35 19 0 39 -28 39 -54 0 -16 6 -26 15 -26 8 0 15 -4 15 -10 0 -5 7 -10 15
-10 8 0 15 -9 15 -20 0 -11 7 -20 15 -20 9 0 15 -9 15 -25 0 -16 6 -25 15 -25
8 0 15 -7 15 -15 0 -8 5 -15 10 -15 6 0 10 -13 10 -30 0 -20 5 -30 15 -30 8 0
15 -7 15 -15 0 -8 9 -15 20 -15 15 0 20 -7 20 -25 0 -14 5 -25 10 -25 6 0 10
-9 10 -20 0 -11 7 -20 15 -20 8 0 15 -4 15 -10 0 -5 7 -10 15 -10 8 0 15 -7
15 -15 0 -8 7 -15 15 -15 8 0 15 -7 15 -15 0 -8 7 -15 15 -15 8 0 15 -4 15
-10 0 -5 7 -10 15 -10 8 0 15 -9 15 -20 0 -11 5 -20 10 -20 6 0 10 -7 10 -15
0 -10 10 -15 31 -15 30 0 59 -19 59 -39 0 -6 7 -11 15 -11 8 0 15 -7 15 -15 0
-9 9 -15 25 -15 16 0 25 -6 25 -15 0 -10 11 -15 35 -15 24 0 35 -5 35 -15 0
-8 5 -15 10 -15 6 0 10 -7 10 -15 0 -10 10 -15 30 -15 17 0 30 -4 30 -10 0 -5
14 -10 30 -10 20 0 30 -5 30 -15 0 -11 11 -15 40 -15 33 0 40 -3 40 -20 0 -16
7 -20 30 -20 17 0 30 -4 30 -10 0 -5 11 -10 25 -10 16 0 25 -6 25 -15 0 -11
12 -15 45 -15 33 0 45 -4 45 -15 0 -11 11 -15 40 -15 22 0 40 -4 40 -10 0 -6
27 -10 60 -10 53 0 60 -2 60 -20 0 -18 7 -20 60 -20 33 0 60 -4 60 -10 0 -6
35 -10 85 -10 69 0 85 -3 85 -15 0 -13 21 -15 125 -15 104 0 125 -2 125 -15 0
-12 16 -15 85 -15 69 0 85 3 85 15 0 13 23 15 145 15 122 0 145 2 145 15 0 12
14 15 70 15 40 0 70 4 70 10 0 6 27 10 60 10 53 0 60 2 60 20 0 17 7 20 45 20
25 0 45 5 45 10 0 6 11 10 25 10 16 0 25 6 25 15 0 11 12 15 45 15 33 0 45 4
45 15 0 9 9 15 25 15 14 0 25 5 25 10 0 6 16 10 35 10 28 0 35 4 35 20 0 15 7
20 25 20 16 0 25 6 25 15 0 8 7 15 15 15 8 0 15 5 15 10 0 6 14 10 30 10 20 0
30 5 30 15 0 8 5 15 10 15 6 0 10 7 10 15 0 11 12 15 45 15 33 0 45 -4 45 -15
0 -11 11 -15 40 -15 29 0 40 -4 40 -15 0 -8 7 -15 15 -15 8 0 15 7 15 15 0 11
12 15 45 15 33 0 45 -4 45 -15 0 -8 -7 -15 -15 -15 -8 0 -15 -4 -15 -10 0 -5
-20 -10 -45 -10 -45 0 -45 0 -45 -35 l0 -35 -55 0 c-30 0 -55 -4 -55 -10 0 -5
7 -10 15 -10 8 0 15 -7 15 -15 0 -8 -7 -15 -15 -15 -8 0 -15 -7 -15 -15 0 -10
-10 -15 -30 -15 -16 0 -30 -4 -30 -10 0 -5 14 -10 30 -10 23 0 30 -4 30 -20 0
-11 7 -20 15 -20 10 0 15 10 15 30 0 27 3 30 30 30 17 0 30 -4 30 -10 0 -5 -7
-10 -15 -10 -10 0 -15 -10 -15 -30 0 -20 5 -30 15 -30 8 0 15 5 15 10 0 6 11
10 25 10 18 0 25 5 25 20 0 11 -7 20 -15 20 -9 0 -15 9 -15 25 0 14 -4 25 -10
25 -5 0 -10 7 -10 15 0 8 5 15 10 15 6 0 10 -7 10 -15 0 -8 7 -15 15 -15 9 0
15 9 15 25 0 21 5 25 30 25 17 0 30 -4 30 -10 0 -5 7 -10 15 -10 10 0 15 10
15 30 0 20 5 30 15 30 8 0 15 6 15 14 0 8 6 17 13 20 10 5 10 7 0 12 -7 3 -13
12 -13 20 0 11 18 14 85 14 69 0 85 3 85 15 0 8 7 15 15 15 12 0 15 -18 15
-100 l0 -100 -30 0 c-20 0 -30 -5 -30 -15 0 -9 -9 -15 -25 -15 -14 0 -25 -4
-25 -10 0 -6 -27 -10 -60 -10 -53 0 -60 -2 -60 -20 0 -11 -6 -20 -14 -20 -8 0
-17 -6 -20 -12 -5 -11 -7 -11 -12 0 -7 14 -44 16 -44 2 0 -5 -7 -10 -15 -10
-8 0 -15 -7 -15 -15 0 -8 -4 -15 -10 -15 -5 0 -10 -7 -10 -15 0 -12 -15 -15
-75 -15 l-75 0 0 -30 c0 -20 5 -30 15 -30 8 0 15 -7 15 -15 0 -8 7 -15 15 -15
8 0 15 -4 15 -10 0 -5 7 -10 15 -10 8 0 15 -7 15 -15 0 -8 7 -15 15 -15 8 0
15 -7 15 -15 0 -8 7 -15 15 -15 8 0 15 -7 15 -15 0 -8 5 -15 10 -15 6 0 10 -7
10 -15 0 -8 7 -15 15 -15 8 0 15 -7 15 -15 0 -8 7 -15 16 -15 20 0 44 -24 44
-44 0 -11 9 -16 30 -16 17 0 30 -5 30 -11 0 -20 29 -39 59 -39 21 0 31 -5 31
-15 0 -8 5 -15 10 -15 6 0 10 -7 10 -15 0 -10 10 -15 30 -15 20 0 30 -5 30
-15 0 -8 7 -15 15 -15 8 0 15 -7 15 -15 0 -10 10 -15 30 -15 17 0 30 -4 30
-10 0 -5 14 -10 30 -10 20 0 30 -5 30 -15 0 -8 7 -15 15 -15 8 0 15 -7 15 -15
0 -9 9 -15 25 -15 16 0 25 -6 25 -15 0 -10 10 -15 30 -15 20 0 30 -5 30 -15 0
-8 7 -15 15 -15 8 0 15 -7 15 -15 0 -9 9 -15 25 -15 14 0 25 -4 25 -10 0 -5
14 -10 30 -10 20 0 30 -5 30 -15 0 -10 10 -15 30 -15 23 0 30 -4 30 -20 0 -17
7 -20 45 -20 l45 0 0 200 c0 193 -1 200 -20 200 -20 0 -20 7 -20 1150 0 1016
-2 1150 -15 1150 -9 0 -15 9 -15 25 0 14 -4 25 -10 25 -5 0 -10 -7 -10 -15 0
-8 -7 -15 -15 -15 -8 0 -15 -4 -15 -10 0 -5 -7 -10 -15 -10 -10 0 -15 -11 -15
-35 0 -24 -5 -35 -15 -35 -8 0 -15 -4 -15 -10 0 -5 -7 -10 -15 -10 -8 0 -15
-7 -15 -15 0 -8 -7 -15 -15 -15 -8 0 -15 -5 -15 -11 0 -14 -25 -39 -39 -39 -6
0 -11 -9 -11 -20 0 -11 -7 -20 -15 -20 -8 0 -15 -7 -15 -15 0 -8 -7 -15 -15
-15 -8 0 -15 -4 -15 -10 0 -5 -7 -10 -15 -10 -8 0 -15 -7 -15 -15 0 -8 -4 -15
-10 -15 -5 0 -10 -9 -10 -20 0 -11 -7 -20 -15 -20 -8 0 -15 -4 -15 -10 0 -5
-9 -10 -20 -10 -11 0 -20 -7 -20 -15 0 -8 -4 -15 -10 -15 -5 0 -10 -7 -10 -15
0 -10 -10 -15 -30 -15 -20 0 -30 5 -30 15 0 8 -7 15 -15 15 -8 0 -15 7 -15 15
0 8 -7 15 -15 15 -8 0 -15 5 -15 10 0 6 -7 10 -15 10 -8 0 -15 9 -15 20 0 15
-7 20 -25 20 -16 0 -25 6 -25 15 0 10 -10 15 -30 15 -16 0 -30 5 -30 10 0 6
-13 10 -30 10 -20 0 -30 5 -30 15 0 10 -10 15 -30 15 -23 0 -30 4 -30 20 0 15
-7 20 -25 20 -14 0 -25 5 -25 10 0 6 -13 10 -30 10 -20 0 -30 5 -30 15 0 10
-10 15 -30 15 -20 0 -30 5 -30 15 0 11 -11 15 -40 15 -22 0 -40 5 -40 10 0 6
-13 10 -30 10 -23 0 -30 4 -30 20 0 15 -7 20 -25 20 -16 0 -25 6 -25 15 0 11
-12 15 -45 15 -25 0 -45 5 -45 10 0 6 -13 10 -30 10 -20 0 -30 5 -30 15 0 10
-10 15 -30 15 -20 0 -30 -5 -30 -15 0 -8 7 -15 16 -15 18 0 44 -23 44 -39 0
-6 7 -11 15 -11 8 0 15 -9 15 -20 0 -11 5 -20 11 -20 14 0 39 -25 39 -39 0 -6
9 -11 20 -11 11 0 20 -7 20 -15 0 -8 5 -15 11 -15 16 0 39 -26 39 -44 0 -9 7
-16 15 -16 8 0 15 -7 15 -15 0 -8 7 -15 15 -15 8 0 15 -4 15 -10 0 -5 7 -10
15 -10 8 0 15 -7 15 -15 0 -8 7 -15 15 -15 8 0 15 -9 15 -20 0 -11 5 -20 10
-20 6 0 10 -11 10 -25 0 -16 6 -25 15 -25 8 0 15 -7 15 -15 0 -8 7 -15 15 -15
8 0 15 -4 15 -10 0 -5 7 -10 15 -10 8 0 15 -9 15 -20 0 -11 7 -20 15 -20 11 0
15 -11 15 -40 0 -29 4 -40 15 -40 8 0 15 -7 15 -15 0 -9 9 -15 25 -15 16 0 25
6 25 15 0 11 12 15 45 15 33 0 45 -4 45 -15 0 -8 -7 -15 -15 -15 -8 0 -15 -7
-15 -15 0 -8 7 -15 15 -15 8 0 15 7 15 15 0 9 9 15 25 15 16 0 25 6 25 15 0 8
9 15 20 15 11 0 20 -7 20 -15 0 -12 14 -15 70 -15 56 0 70 3 70 15 0 8 7 15
15 15 8 0 15 7 15 15 0 8 7 15 15 15 13 0 15 -23 15 -145 0 -122 -2 -145 -15
-145 -12 0 -15 -19 -15 -115 0 -96 -3 -115 -15 -115 -9 0 -15 -9 -15 -25 0
-16 -6 -25 -15 -25 -10 0 -15 -10 -15 -30 0 -20 5 -30 15 -30 12 0 15 -15 15
-75 0 -60 -3 -75 -15 -75 -9 0 -15 -9 -15 -25 0 -22 -4 -25 -40 -25 -29 0 -40
4 -40 15 0 10 -11 15 -35 15 -24 0 -35 -5 -35 -15 0 -12 -16 -15 -85 -15 -69
0 -85 3 -85 15 0 8 -4 15 -10 15 -5 0 -10 -7 -10 -15 0 -12 -13 -15 -60 -15
-47 0 -60 -3 -60 -15 0 -11 -11 -15 -40 -15 -22 0 -40 -4 -40 -10 0 -5 -13
-10 -30 -10 -23 0 -30 -4 -30 -20 0 -11 -7 -20 -15 -20 -8 0 -15 -7 -15 -15 0
-9 -9 -15 -25 -15 -14 0 -25 -4 -25 -10 0 -5 -13 -10 -30 -10 -20 0 -30 -5
-30 -15 0 -10 -10 -15 -30 -15 -20 0 -30 -5 -30 -15 0 -11 -12 -15 -45 -15
-33 0 -45 -4 -45 -15 0 -9 -9 -15 -25 -15 -16 0 -25 -6 -25 -15 0 -11 -12 -15
-45 -15 -33 0 -45 -4 -45 -15 0 -12 -13 -15 -60 -15 -33 0 -60 -4 -60 -10 0
-6 -43 -10 -110 -10 -91 0 -110 -3 -110 -15 0 -8 -7 -15 -15 -15 -8 0 -15 7
-15 15 0 13 -27 15 -185 15 -117 0 -185 4 -185 10 0 6 -35 10 -85 10 -69 0
-85 3 -85 15 0 12 -13 15 -55 15 -42 0 -55 3 -55 15 0 11 -12 15 -45 15 -33 0
-45 4 -45 15 0 8 5 15 10 15 6 0 10 7 10 15 0 8 9 15 20 15 11 0 20 7 20 15 0
8 5 15 11 15 14 0 39 25 39 39 0 6 7 11 15 11 8 0 15 9 15 20 0 17 7 20 45 20
38 0 45 -3 45 -20 0 -11 5 -20 10 -20 6 0 10 14 10 30 0 17 -4 30 -10 30 -5 0
-10 7 -10 15 0 10 -10 15 -30 15 -20 0 -30 5 -30 15 0 8 -7 15 -15 15 -8 0
-15 5 -15 10 0 6 -7 10 -15 10 -8 0 -15 9 -15 20 0 11 -4 20 -10 20 -5 0 -10
7 -10 15 0 10 -10 15 -31 15 -30 0 -59 19 -59 39 0 6 -7 11 -15 11 -10 0 -15
10 -15 30 0 20 -5 30 -15 30 -8 0 -15 7 -15 15 0 8 -7 15 -15 15 -8 0 -15 5
-15 10 0 6 -7 10 -15 10 -10 0 -15 11 -15 35 0 19 -5 35 -11 35 -19 0 -39 28
-39 54 0 16 -6 26 -15 26 -10 0 -15 10 -15 30 0 23 -4 30 -20 30 -15 0 -20 7
-20 25 0 14 -4 25 -10 25 -6 0 -10 27 -10 60 0 47 -3 60 -15 60 -9 0 -15 9
-15 25 0 16 -6 25 -15 25 -10 0 -15 10 -15 30 0 17 -4 30 -10 30 -5 0 -10 18
-10 40 0 33 -3 40 -20 40 -16 0 -20 7 -20 35 0 24 -5 35 -15 35 -9 0 -15 9
-15 25 0 14 -4 25 -10 25 -5 0 -10 20 -10 45 0 33 -4 45 -15 45 -13 0 -15 32
-15 225 0 193 2 225 15 225 12 0 15 13 15 60 0 33 4 60 10 60 6 0 10 27 10 60
0 47 3 60 15 60 11 0 15 12 15 50 0 43 3 50 20 50 18 0 20 7 20 60 0 33 4 60
10 60 6 0 10 25 10 55 0 42 3 55 15 55 11 0 15 12 15 45 0 33 4 45 15 45 10 0
15 10 15 30 0 17 5 30 10 30 6 0 10 14 10 30 0 23 4 30 20 30 11 0 20 7 20 15
0 8 5 15 11 15 14 0 39 25 39 39 0 6 7 11 15 11 10 0 15 10 15 30 0 20 5 30
15 30 8 0 15 7 15 15 0 8 7 15 15 15 8 0 15 7 15 15 0 8 7 15 15 15 8 0 15 5
15 10 0 6 7 10 15 10 8 0 15 7 15 15 0 8 5 15 10 15 6 0 10 9 10 20 0 13 7 20
20 20 11 0 20 5 20 10 0 6 11 10 25 10 16 0 25 6 25 15 0 8 7 15 15 15 8 0 15
7 15 15 0 8 7 15 15 15 8 0 15 5 15 10 0 6 7 10 15 10 8 0 15 9 15 20 0 11 7
20 15 20 8 0 15 5 15 10 0 6 11 10 25 10 16 0 25 6 25 15 0 8 7 15 15 15 8 0
15 7 15 15 0 8 7 15 15 15 8 0 15 5 15 10 0 6 14 10 30 10 23 0 30 4 30 20 0
15 7 20 25 20 16 0 25 6 25 15 0 11 12 15 45 15 25 0 45 5 45 10 0 6 20 10 45
10 33 0 45 4 45 15 0 12 13 15 55 15 42 0 55 3 55 15 0 13 34 15 245 15 211 0
245 -2 245 -15 0 -13 22 -15 140 -15 118 0 140 -2 140 -15 0 -11 12 -15 45
-15 25 0 45 -4 45 -10 0 -5 18 -10 40 -10 29 0 40 -4 40 -15 0 -10 10 -15 30
-15 23 0 30 -4 30 -20 0 -16 7 -20 30 -20 17 0 30 -4 30 -10 0 -5 11 -10 25
-10 16 0 25 -6 25 -15 0 -10 10 -15 30 -15 20 0 30 -5 30 -15 0 -8 7 -15 15
-15 8 0 15 -4 15 -10 0 -5 11 -10 25 -10 18 0 25 -5 25 -20 0 -13 7 -20 20
-20 11 0 20 -4 20 -10 0 -5 11 -10 25 -10 16 0 25 -6 25 -15 0 -8 7 -15 15
-15 8 0 15 -7 15 -15 0 -8 7 -15 15 -15 8 0 15 -4 15 -10 0 -5 14 -10 30 -10
23 0 30 -4 30 -20 0 -11 7 -20 15 -20 8 0 15 -5 15 -11 0 -20 29 -39 59 -39
21 0 31 -5 31 -15 0 -8 5 -15 10 -15 6 0 10 -7 10 -15 0 -8 7 -15 15 -15 8 0
15 -7 15 -15 0 -8 7 -15 15 -15 8 0 15 -7 15 -15 0 -8 7 -15 15 -15 8 0 15 -7
15 -15 0 -8 7 -15 15 -15 8 0 15 -4 15 -10 0 -5 11 -10 25 -10 16 0 25 -6 25
-15 0 -8 7 -15 15 -15 8 0 15 -9 15 -20 0 -17 7 -20 45 -20 38 0 45 3 45 20 0
15 7 20 25 20 16 0 25 6 25 15 0 8 7 15 16 15 30 0 44 27 44 84 0 31 -4 56
-10 56 -6 0 -10 43 -10 110 0 103 -1 110 -20 110 -20 0 -20 7 -20 345 0 338 0
345 20 345 18 0 20 7 20 70 0 63 -2 70 -20 70 -13 0 -20 7 -20 20 0 11 -7 20
-15 20 -10 0 -15 -10 -15 -31z m-970 -194 c0 -9 -9 -15 -25 -15 -16 0 -25 6
-25 15 0 9 9 15 25 15 16 0 25 -6 25 -15z m120 -210 c0 -32 -2 -35 -30 -35
-23 0 -30 4 -30 20 0 11 7 20 15 20 8 0 15 7 15 15 0 8 7 15 15 15 10 0 15
-11 15 -35z m-3200 -1045 c0 -5 -7 -10 -15 -10 -8 0 -15 5 -15 10 0 6 7 10 15
10 8 0 15 -4 15 -10z m-30 -55 c0 -8 -7 -15 -15 -15 -8 0 -15 7 -15 15 0 8 7
15 15 15 8 0 15 -7 15 -15z m-30 -255 c0 -5 -7 -10 -15 -10 -8 0 -15 5 -15 10
0 6 7 10 15 10 8 0 15 -4 15 -10z m310 -61 c0 -16 -26 -39 -44 -39 -9 0 -16 5
-16 10 0 6 -7 10 -15 10 -8 0 -15 7 -15 15 0 11 12 15 45 15 25 0 45 -5 45
-11z m-140 -29 c0 -5 -7 -10 -15 -10 -8 0 -15 5 -15 10 0 6 7 10 15 10 8 0 15
-4 15 -10z m80 -25 c0 -8 9 -15 20 -15 11 0 20 -7 20 -15 0 -8 5 -15 10 -15 6
0 10 -7 10 -15 0 -11 12 -15 45 -15 l45 0 0 -70 c0 -56 -3 -70 -15 -70 -8 0
-15 -7 -15 -15 0 -10 -10 -15 -30 -15 -20 0 -30 -5 -30 -15 0 -11 12 -15 45
-15 25 0 45 -4 45 -10 0 -5 -13 -10 -30 -10 -28 0 -30 -3 -30 -35 0 -24 -5
-35 -15 -35 -8 0 -15 9 -15 20 0 16 -7 20 -30 20 -20 0 -30 5 -30 15 0 10 10
15 30 15 17 0 30 5 30 10 0 6 -4 10 -10 10 -5 0 -10 7 -10 15 0 8 5 15 10 15
6 0 10 14 10 30 0 20 5 30 15 30 11 0 15 11 15 40 0 36 -2 40 -25 40 -26 0
-35 -24 -12 -34 10 -5 10 -7 0 -12 -7 -3 -13 -12 -13 -20 0 -8 -9 -14 -20 -14
-11 0 -20 -7 -20 -15 0 -8 -7 -15 -15 -15 -8 0 -15 7 -15 15 0 8 7 15 15 15 8
0 15 7 15 15 0 11 -11 15 -40 15 -22 0 -40 5 -40 10 0 6 18 10 40 10 38 0 40
2 40 30 0 23 4 30 20 30 11 0 20 7 20 15 0 10 -11 15 -35 15 -24 0 -35 -5 -35
-15 0 -8 -4 -15 -10 -15 -5 0 -10 20 -10 45 0 41 2 45 25 45 16 0 25 -6 25
-15z m-280 -60 c0 -33 -4 -45 -15 -45 -8 0 -15 7 -15 15 0 8 -7 15 -15 15 -8
0 -15 7 -15 15 0 8 7 15 15 15 8 0 15 7 15 15 0 8 7 15 15 15 11 0 15 -12 15
-45z m60 -60 c0 -8 -7 -15 -15 -15 -8 0 -15 7 -15 15 0 8 7 15 15 15 8 0 15
-7 15 -15z m80 -165 c0 -5 -7 -10 -15 -10 -8 0 -15 5 -15 10 0 6 7 10 15 10 8
0 15 -4 15 -10z m110 0 c0 -5 -4 -10 -10 -10 -5 0 -10 5 -10 10 0 6 5 10 10
10 6 0 10 -4 10 -10z m-220 -60 c0 -11 -7 -20 -15 -20 -8 0 -15 9 -15 20 0 11
7 20 15 20 8 0 15 -9 15 -20z m-30 -55 c0 -8 -7 -15 -15 -15 -8 0 -15 7 -15
15 0 8 7 15 15 15 8 0 15 -7 15 -15z m110 0 c0 -8 -4 -15 -10 -15 -5 0 -10 7
-10 15 0 8 5 15 10 15 6 0 10 -7 10 -15z m320 0 c0 -10 -10 -15 -30 -15 -20 0
-30 5 -30 15 0 10 10 15 30 15 20 0 30 -5 30 -15z m-30 -55 c0 -5 -7 -10 -15
-10 -8 0 -15 5 -15 10 0 6 7 10 15 10 8 0 15 -4 15 -10z m-120 -30 c0 -11 -7
-20 -15 -20 -8 0 -15 9 -15 20 0 11 7 20 15 20 8 0 15 -9 15 -20z m150 -45 c0
-16 -6 -25 -15 -25 -9 0 -15 9 -15 25 0 16 6 25 15 25 9 0 15 -9 15 -25z m970
-1175 c0 -27 -3 -30 -30 -30 -20 0 -30 -5 -30 -15 0 -10 10 -15 30 -15 17 0
30 -4 30 -10 0 -5 7 -10 15 -10 8 0 15 5 15 10 0 6 14 10 30 10 28 0 30 -2 30
-40 0 -38 -2 -40 -30 -40 -20 0 -30 5 -30 15 0 10 -10 15 -30 15 -20 0 -30 5
-30 15 0 9 -9 15 -25 15 -20 0 -25 5 -25 25 0 14 5 25 10 25 6 0 10 9 10 20 0
11 7 20 15 20 8 0 15 5 15 10 0 6 7 10 15 10 10 0 15 -10 15 -30z m90 -10 c0
-16 -7 -20 -30 -20 -23 0 -30 4 -30 20 0 16 7 20 30 20 23 0 30 -4 30 -20z
m2170 -85 c0 -8 -7 -15 -15 -15 -8 0 -15 7 -15 15 0 8 7 15 15 15 8 0 15 -7
15 -15z"/>
<path d="M1860 4895 c0 -8 7 -15 15 -15 8 0 15 -4 15 -10 0 -5 18 -10 40 -10
29 0 40 -4 40 -15 0 -12 16 -15 85 -15 84 0 85 0 85 25 0 16 -6 25 -15 25 -8
0 -15 -4 -15 -10 0 -5 -25 -10 -55 -10 -30 0 -55 5 -55 10 0 6 20 10 45 10 33
0 45 4 45 15 0 12 -13 15 -60 15 -47 0 -60 -3 -60 -15 0 -8 -7 -15 -15 -15 -8
0 -15 7 -15 15 0 8 -4 15 -10 15 -5 0 -10 -7 -10 -15 0 -8 -7 -15 -15 -15 -8
0 -15 7 -15 15 0 8 -7 15 -15 15 -8 0 -15 -7 -15 -15z"/>
<path d="M2180 4895 c0 -8 5 -15 10 -15 6 0 10 7 10 15 0 8 -4 15 -10 15 -5 0
-10 -7 -10 -15z"/>
<path d="M2750 4895 c0 -8 5 -15 10 -15 6 0 10 7 10 15 0 8 -4 15 -10 15 -5 0
-10 -7 -10 -15z"/>
<path d="M2830 4895 c0 -8 7 -15 15 -15 8 0 15 7 15 15 0 8 -7 15 -15 15 -8 0
-15 -7 -15 -15z"/>
<path d="M2940 4895 c0 -10 11 -15 35 -15 24 0 35 5 35 15 0 10 -11 15 -35 15
-24 0 -35 -5 -35 -15z"/>
<path d="M1710 4855 c0 -20 -5 -25 -25 -25 -16 0 -25 -6 -25 -15 0 -12 -13
-15 -60 -15 l-60 0 0 -30 c0 -20 5 -30 15 -30 8 0 15 7 15 15 0 10 10 15 30
15 20 0 30 -5 30 -15 0 -10 10 -15 30 -15 27 0 30 3 30 30 0 17 5 30 10 30 6
0 10 7 10 15 0 11 12 15 45 15 41 0 45 2 45 25 0 14 -4 25 -10 25 -5 0 -10 -4
-10 -10 0 -5 -7 -10 -15 -10 -8 0 -15 5 -15 10 0 6 -9 10 -20 10 -15 0 -20 -7
-20 -25z"/>
<path d="M3090 4870 c0 -5 5 -10 10 -10 6 0 10 5 10 10 0 6 -4 10 -10 10 -5 0
-10 -4 -10 -10z"/>
<path d="M3150 4845 c0 -11 -12 -15 -45 -15 -33 0 -45 -4 -45 -15 0 -8 7 -15
15 -15 8 0 15 -7 15 -15 0 -8 5 -15 10 -15 6 0 10 7 10 15 0 8 9 15 20 15 11
0 20 7 20 15 0 8 7 15 15 15 8 0 15 7 15 15 0 8 -7 15 -15 15 -8 0 -15 -7 -15
-15z"/>
<path d="M3200 4845 c0 -8 7 -15 15 -15 8 0 15 -7 15 -15 0 -11 12 -15 45 -15
33 0 45 4 45 15 0 10 -10 15 -30 15 -20 0 -30 5 -30 15 0 10 -10 15 -30 15
-20 0 -30 -5 -30 -15z"/>
<path d="M2180 4815 c0 -8 5 -15 10 -15 6 0 10 7 10 15 0 8 -4 15 -10 15 -5 0
-10 -7 -10 -15z"/>
<path d="M2680 4815 c0 -10 11 -15 35 -15 24 0 35 5 35 15 0 10 -11 15 -35 15
-24 0 -35 -5 -35 -15z"/>
<path d="M3010 4815 c0 -8 5 -15 10 -15 6 0 10 7 10 15 0 8 -4 15 -10 15 -5 0
-10 -7 -10 -15z"/>
<path d="M4150 4815 c0 -8 5 -15 10 -15 6 0 10 7 10 15 0 8 -4 15 -10 15 -5 0
-10 -7 -10 -15z"/>
<path d="M1920 4785 c0 -11 11 -15 40 -15 29 0 40 4 40 15 0 11 -11 15 -40 15
-29 0 -40 -4 -40 -15z"/>
<path d="M2320 4770 c0 -30 1 -30 55 -30 42 0 55 3 55 15 0 8 7 15 15 15 8 0
15 7 15 15 0 12 -14 15 -70 15 l-70 0 0 -30z"/>
<path d="M1450 4755 c0 -11 -11 -15 -40 -15 -28 0 -40 -4 -40 -14 0 -8 -6 -17
-12 -20 -10 -5 -10 -7 0 -12 6 -3 12 -12 12 -20 0 -8 7 -14 15 -14 8 0 15 7
15 15 0 8 7 15 15 15 8 0 15 -7 15 -15 0 -8 5 -15 10 -15 6 0 10 11 10 25 0
18 5 25 20 25 11 0 20 7 20 15 0 8 7 15 15 15 8 0 15 7 15 15 0 10 -11 15 -35
15 -24 0 -35 -5 -35 -15z"/>
<path d="M2800 4725 c0 -8 7 -15 15 -15 8 0 15 7 15 15 0 8 -7 15 -15 15 -8 0
-15 -7 -15 -15z"/>
<path d="M3200 4725 c0 -10 10 -15 30 -15 20 0 30 5 30 15 0 10 -10 15 -30 15
-20 0 -30 -5 -30 -15z"/>
<path d="M4030 4726 c0 -8 -6 -17 -12 -20 -10 -5 -10 -7 0 -12 6 -3 12 -12 12
-20 0 -8 7 -14 15 -14 8 0 15 7 15 15 0 8 7 15 15 15 9 0 15 9 15 25 0 21 -5
25 -30 25 -19 0 -30 -5 -30 -14z"/>
<path d="M1260 4675 c0 -8 5 -15 10 -15 6 0 10 7 10 15 0 8 -4 15 -10 15 -5 0
-10 -7 -10 -15z"/>
<path d="M1570 4675 c0 -8 7 -15 15 -15 8 0 15 7 15 15 0 8 -7 15 -15 15 -8 0
-15 -7 -15 -15z"/>
<path d="M1660 4645 c0 -8 7 -15 15 -15 8 0 15 7 15 15 0 8 -7 15 -15 15 -8 0
-15 -7 -15 -15z"/>
<path d="M1260 4585 c0 -8 5 -15 10 -15 6 0 10 7 10 15 0 8 -4 15 -10 15 -5 0
-10 -7 -10 -15z"/>
<path d="M3800 4585 c0 -8 7 -15 15 -15 8 0 15 7 15 15 0 8 -7 15 -15 15 -8 0
-15 -7 -15 -15z"/>
<path d="M3860 4585 c0 -8 7 -15 15 -15 8 0 15 7 15 15 0 8 -7 15 -15 15 -8 0
-15 -7 -15 -15z"/>
<path d="M3890 4560 c0 -5 -7 -10 -15 -10 -10 0 -15 -11 -15 -35 0 -24 5 -35
15 -35 8 0 15 9 15 20 0 11 7 20 15 20 8 0 15 7 15 15 0 8 5 15 10 15 6 0 10
5 10 10 0 6 -11 10 -25 10 -14 0 -25 -4 -25 -10z"/>
<path d="M1110 4504 c0 -27 -27 -44 -69 -44 -30 0 -41 -4 -41 -15 0 -8 -7 -15
-15 -15 -8 0 -15 7 -15 15 0 9 -9 15 -25 15 -16 0 -25 -6 -25 -15 0 -9 9 -15
25 -15 16 0 25 -6 25 -15 0 -11 12 -15 45 -15 33 0 45 4 45 15 0 9 9 15 25 15
20 0 25 5 25 25 0 16 6 25 15 25 8 0 15 9 15 20 0 11 -7 20 -15 20 -8 0 -15
-7 -15 -16z"/>
<path d="M1430 4470 c0 -5 5 -10 10 -10 6 0 10 5 10 10 0 6 -4 10 -10 10 -5 0
-10 -4 -10 -10z"/>
<path d="M1170 4445 c0 -10 10 -15 30 -15 20 0 30 5 30 15 0 10 -10 15 -30 15
-20 0 -30 -5 -30 -15z"/>
<path d="M3920 4430 c0 -20 -5 -30 -15 -30 -10 0 -15 -10 -15 -30 0 -20 5 -30
15 -30 8 0 15 7 15 15 0 8 5 15 10 15 6 0 10 7 10 15 0 8 9 15 20 15 11 0 20
7 20 15 0 8 -9 15 -20 15 -11 0 -20 7 -20 15 0 8 -4 15 -10 15 -5 0 -10 -13
-10 -30z"/>
<path d="M880 4370 c0 -23 4 -30 20 -30 11 0 20 -7 20 -15 0 -8 7 -15 15 -15
8 0 15 7 15 15 0 8 -7 15 -15 15 -10 0 -15 10 -15 30 0 23 -4 30 -20 30 -16 0
-20 -7 -20 -30z"/>
<path d="M970 4355 c0 -10 10 -15 30 -15 20 0 30 5 30 15 0 10 -10 15 -30 15
-20 0 -30 -5 -30 -15z"/>
<path d="M860 4300 c0 -5 5 -10 10 -10 6 0 10 5 10 10 0 6 -4 10 -10 10 -5 0
-10 -4 -10 -10z"/>
<path d="M690 4240 c0 -11 -7 -20 -15 -20 -8 0 -15 -4 -15 -10 0 -5 -7 -10
-15 -10 -10 0 -15 -10 -15 -30 0 -27 3 -30 30 -30 20 0 30 5 30 15 0 8 -7 15
-15 15 -8 0 -15 7 -15 15 0 11 11 15 40 15 22 0 40 5 40 10 0 6 9 10 20 10 11
0 20 -4 20 -10 0 -5 -9 -10 -20 -10 -11 0 -20 -7 -20 -15 0 -10 10 -15 30 -15
25 0 30 4 30 25 0 16 6 25 15 25 8 0 15 -4 15 -10 0 -5 5 -10 11 -10 16 0 39
26 39 44 0 13 -15 16 -95 16 -88 0 -95 -1 -95 -20z"/>
<path d="M533 4125 c-7 -8 -13 -21 -13 -30 0 -8 -9 -15 -20 -15 -15 0 -20 -7
-20 -25 0 -16 -6 -25 -15 -25 -8 0 -15 -5 -15 -11 0 -14 -25 -39 -39 -39 -6 0
-11 -16 -11 -35 0 -31 3 -35 25 -35 14 0 25 -4 25 -10 0 -5 7 -10 15 -10 8 0
15 5 15 10 0 6 9 10 20 10 11 0 20 -4 20 -10 0 -5 11 -10 25 -10 23 0 25 4 25
45 0 41 -2 45 -25 45 -18 0 -25 -5 -25 -20 0 -13 -7 -20 -20 -20 -11 0 -20 -7
-20 -15 0 -8 -7 -15 -15 -15 -8 0 -15 7 -15 15 0 8 7 15 15 15 11 0 15 12 15
45 0 38 3 45 20 45 11 0 20 7 20 15 0 12 13 15 55 15 30 0 55 5 55 10 0 6 7
10 15 10 8 0 15 9 15 20 0 16 -7 20 -30 20 -16 0 -30 5 -30 10 0 15 -53 11
-67 -5z"/>
<path d="M740 4130 c0 -5 9 -10 20 -10 11 0 20 5 20 10 0 6 -9 10 -20 10 -11
0 -20 -4 -20 -10z"/>
<path d="M703 4065 c-7 -8 -13 -19 -13 -25 0 -5 -7 -10 -15 -10 -8 0 -15 -7
-15 -15 0 -8 7 -15 15 -15 8 0 15 7 15 15 0 12 13 15 55 15 52 0 55 1 55 25 0
23 -4 25 -42 25 -24 -1 -49 -7 -55 -15z"/>
<path d="M880 4015 c0 -8 9 -15 20 -15 11 0 20 7 20 15 0 8 -9 15 -20 15 -11
0 -20 -7 -20 -15z"/>
<path d="M600 3960 c0 -16 7 -20 30 -20 23 0 30 4 30 20 0 16 -7 20 -30 20
-23 0 -30 -4 -30 -20z"/>
<path d="M780 3915 c0 -18 -5 -25 -20 -25 -16 0 -20 -7 -20 -30 0 -23 4 -30
20 -30 11 0 20 -7 20 -15 0 -9 9 -15 25 -15 21 0 25 5 25 30 0 20 -5 30 -15
30 -8 0 -15 7 -15 15 0 10 10 15 30 15 25 0 30 4 30 25 0 23 -4 25 -40 25 -36
0 -40 -2 -40 -25z"/>
<path d="M340 3900 c0 -5 -7 -10 -15 -10 -8 0 -15 -7 -15 -15 0 -12 13 -15 60
-15 47 0 60 3 60 15 0 10 -10 15 -30 15 -16 0 -30 5 -30 10 0 6 -7 10 -15 10
-8 0 -15 -4 -15 -10z"/>
<path d="M630 3875 c0 -11 -12 -15 -45 -15 -33 0 -45 -4 -45 -15 0 -11 12 -15
45 -15 33 0 45 4 45 15 0 8 7 15 15 15 8 0 15 7 15 15 0 8 -7 15 -15 15 -8 0
-15 -7 -15 -15z"/>
<path d="M340 3815 c0 -8 -7 -15 -15 -15 -8 0 -15 -7 -15 -15 0 -9 -9 -15 -25
-15 -16 0 -25 -6 -25 -15 0 -9 9 -15 25 -15 16 0 25 6 25 15 0 10 10 15 30 15
20 0 30 5 30 15 0 8 7 15 15 15 8 0 15 7 15 15 0 10 -10 15 -30 15 -20 0 -30
-5 -30 -15z"/>
<path d="M690 3785 c0 -8 5 -15 10 -15 6 0 10 7 10 15 0 8 -4 15 -10 15 -5 0
-10 -7 -10 -15z"/>
<path d="M370 3615 c0 -8 7 -15 15 -15 8 0 15 7 15 15 0 8 -7 15 -15 15 -8 0
-15 -7 -15 -15z"/>
<path d="M630 3615 c0 -8 7 -15 15 -15 8 0 15 7 15 15 0 8 -7 15 -15 15 -8 0
-15 -7 -15 -15z"/>
<path d="M570 3355 c0 -8 7 -15 15 -15 8 0 15 7 15 15 0 8 -7 15 -15 15 -8 0
-15 -7 -15 -15z"/>
<path d="M480 3305 c0 -8 -7 -15 -15 -15 -8 0 -15 -9 -15 -20 0 -16 7 -20 35
-20 33 0 35 2 35 35 0 28 -4 35 -20 35 -11 0 -20 -7 -20 -15z"/>
<path d="M430 3215 c0 -9 9 -15 25 -15 16 0 25 6 25 15 0 9 -9 15 -25 15 -16
0 -25 -6 -25 -15z"/>
<path d="M600 3085 c0 -16 6 -25 15 -25 9 0 15 9 15 25 0 16 -6 25 -15 25 -9
0 -15 -9 -15 -25z"/>
<path d="M4090 2785 c0 -8 7 -15 15 -15 8 0 15 7 15 15 0 8 -7 15 -15 15 -8 0
-15 -7 -15 -15z"/>
<path d="M3770 2735 c0 -8 7 -15 15 -15 8 0 15 7 15 15 0 8 -7 15 -15 15 -8 0
-15 -7 -15 -15z"/>
<path d="M3540 2155 c0 -8 9 -15 20 -15 11 0 20 7 20 15 0 8 -9 15 -20 15 -11
0 -20 -7 -20 -15z"/>
<path d="M3490 2125 c0 -8 5 -15 10 -15 6 0 10 7 10 15 0 8 -4 15 -10 15 -5 0
-10 -7 -10 -15z"/>
<path d="M3680 2125 c0 -8 9 -15 20 -15 11 0 20 7 20 15 0 8 -9 15 -20 15 -11
0 -20 -7 -20 -15z"/>
<path d="M3600 2075 c0 -10 -10 -15 -30 -15 -20 0 -30 -5 -30 -15 0 -9 -9 -15
-25 -15 -16 0 -25 -6 -25 -15 0 -11 12 -15 45 -15 33 0 45 -4 45 -15 0 -8 5
-15 10 -15 6 0 10 7 10 15 0 8 7 15 15 15 11 0 15 12 15 45 0 33 -4 45 -15 45
-8 0 -15 -7 -15 -15z m0 -60 c0 -8 -4 -15 -10 -15 -5 0 -10 7 -10 15 0 8 5 15
10 15 6 0 10 -7 10 -15z"/>
<path d="M3720 2045 c0 -8 7 -15 15 -15 8 0 15 -7 15 -15 0 -9 9 -15 25 -15
16 0 25 6 25 15 0 8 -7 15 -15 15 -8 0 -15 7 -15 15 0 9 -9 15 -25 15 -16 0
-25 -6 -25 -15z"/>
<path d="M3660 1955 c0 -10 10 -15 30 -15 20 0 30 5 30 15 0 10 -10 15 -30 15
-20 0 -30 -5 -30 -15z"/>
<path d="M3490 1930 c0 -5 5 -10 10 -10 6 0 10 5 10 10 0 6 -4 10 -10 10 -5 0
-10 -4 -10 -10z"/>
<path d="M3600 1930 c0 -5 7 -10 15 -10 8 0 15 5 15 10 0 6 -7 10 -15 10 -8 0
-15 -4 -15 -10z"/>
<path d="M3770 1870 c0 -16 7 -20 30 -20 23 0 30 4 30 20 0 16 -7 20 -30 20
-23 0 -30 -4 -30 -20z"/>
<path d="M3680 1840 c0 -5 16 -10 35 -10 19 0 35 5 35 10 0 6 -16 10 -35 10
-19 0 -35 -4 -35 -10z"/>
<path d="M3400 1740 c0 -20 5 -30 15 -30 8 0 15 9 15 20 0 16 7 20 30 20 23 0
30 -4 30 -20 0 -11 -7 -20 -15 -20 -8 0 -15 -7 -15 -15 0 -12 16 -15 85 -15
69 0 85 3 85 15 0 8 -7 15 -15 15 -8 0 -15 9 -15 20 0 11 7 20 15 20 8 0 15 5
15 10 0 6 -45 10 -115 10 l-115 0 0 -30z"/>
<path d="M3660 1670 c0 -5 5 -10 10 -10 6 0 10 -7 10 -15 0 -9 -9 -15 -25 -15
-16 0 -25 -6 -25 -15 0 -9 9 -15 25 -15 16 0 25 -6 25 -15 0 -8 9 -15 20 -15
15 0 20 -7 20 -25 0 -20 5 -25 25 -25 14 0 25 5 25 10 0 6 -4 10 -10 10 -5 0
-10 7 -10 15 0 8 5 15 10 15 6 0 10 7 10 15 0 8 -4 15 -10 15 -5 0 -10 18 -10
40 0 29 -4 40 -15 40 -8 0 -15 -4 -15 -10 0 -5 -9 -10 -20 -10 -11 0 -20 5
-20 10 0 6 -4 10 -10 10 -5 0 -10 -4 -10 -10z"/>
<path d="M3580 1645 c0 -8 5 -15 10 -15 6 0 10 7 10 15 0 8 -4 15 -10 15 -5 0
-10 -7 -10 -15z"/>
<path d="M3540 1505 c0 -8 9 -15 20 -15 11 0 20 7 20 15 0 8 -9 15 -20 15 -11
0 -20 -7 -20 -15z"/>
<path d="M1970 1360 c0 -5 7 -10 15 -10 8 0 15 5 15 10 0 6 -7 10 -15 10 -8 0
-15 -4 -15 -10z"/>
<path d="M2000 1295 c0 -8 7 -15 15 -15 8 0 15 7 15 15 0 8 -7 15 -15 15 -8 0
-15 -7 -15 -15z"/>
<path d="M2230 1295 c0 -8 7 -15 15 -15 8 0 15 7 15 15 0 8 -7 15 -15 15 -8 0
-15 -7 -15 -15z"/>
<path d="M2350 1295 c0 -10 -11 -15 -35 -15 -19 0 -35 -4 -35 -10 0 -5 16 -10
35 -10 24 0 35 -5 35 -15 0 -8 5 -15 10 -15 6 0 10 7 10 15 0 8 -4 15 -10 15
-5 0 -10 5 -10 10 0 6 11 10 25 10 16 0 25 6 25 15 0 9 -9 15 -25 15 -16 0
-25 -6 -25 -15z"/>
<path d="M2460 1295 c0 -8 7 -15 15 -15 8 0 15 -4 15 -10 0 -5 11 -10 25 -10
14 0 25 5 25 10 0 6 -4 10 -10 10 -5 0 -10 7 -10 15 0 10 -10 15 -30 15 -20 0
-30 -5 -30 -15z"/>
<path d="M2090 1255 c0 -20 5 -25 25 -25 20 0 25 5 25 25 0 20 -5 25 -25 25
-20 0 -25 -5 -25 -25z"/>
<path d="M2770 1270 c0 -5 7 -10 15 -10 8 0 15 5 15 10 0 6 -7 10 -15 10 -8 0
-15 -4 -15 -10z"/>
<path d="M3680 1075 c0 -8 9 -15 20 -15 11 0 20 7 20 15 0 8 -9 15 -20 15 -11
0 -20 -7 -20 -15z"/>
<path d="M3680 955 c0 -10 11 -15 35 -15 24 0 35 5 35 15 0 10 -11 15 -35 15
-24 0 -35 -5 -35 -15z"/>
<path d="M3580 910 c0 -16 5 -30 10 -30 6 0 10 14 10 30 0 17 -4 30 -10 30 -5
0 -10 -13 -10 -30z"/>
</g>
</svg>
